<svg width="1280" height="1512" xmlns="http://www.w3.org/2000/svg" xmlns:xlink="http://www.w3.org/1999/xlink" overflow="hidden"><defs><clipPath id="clip0"><rect x="0" y="0" width="1280" height="1512"/></clipPath></defs><g clip-path="url(#clip0)"><rect x="0" y="0" width="1280" height="1512.17" fill="#FFFFFF"/><text font-family="DengXian,DengXian_MSFontService,sans-serif" font-weight="700" font-size="19" transform="matrix(1 0 0 1.00011 178.996 369)">add</text><text font-family="DengXian,DengXian_MSFontService,sans-serif" font-weight="700" font-size="19" transform="matrix(1 0 0 1.00011 179.996 401)">sub</text><text font-family="DengXian,DengXian_MSFontService,sans-serif" font-weight="700" font-size="19" transform="matrix(1 0 0 1.00011 179.162 433)">and</text><text font-family="DengXian,DengXian_MSFontService,sans-serif" font-weight="700" font-size="19" transform="matrix(1 0 0 1.00011 185.996 465)">or</text><text font-family="DengXian,DengXian_MSFontService,sans-serif" font-weight="700" font-size="19" transform="matrix(1 0 0 1.00011 181.329 497)">xor</text><text font-family="DengXian,DengXian_MSFontService,sans-serif" font-weight="700" font-size="19" transform="matrix(1 0 0 1.00011 185.246 529)">slt</text><text font-family="DengXian,DengXian_MSFontService,sans-serif" font-weight="700" font-size="19" transform="matrix(1 0 0 1.00011 180.412 561)">seq</text><text font-family="DengXian,DengXian_MSFontService,sans-serif" font-weight="700" font-size="19" transform="matrix(1 0 0 1.00011 182.079 593)">sgt</text><text font-family="DengXian,DengXian_MSFontService,sans-serif" font-weight="700" font-size="19" transform="matrix(1 0 0 1.00011 186.162 625)">sll</text><text font-family="DengXian,DengXian_MSFontService,sans-serif" font-weight="700" font-size="19" transform="matrix(1 0 0 1.00011 185.162 657)">srl</text><text font-family="DengXian,DengXian_MSFontService,sans-serif" font-weight="700" font-size="19" transform="matrix(1 0 0 1.00011 182.746 689)">sra</text><text font-family="DengXian,DengXian_MSFontService,sans-serif" font-weight="700" font-size="19" transform="matrix(1 0 0 1.00011 189.162 721)">jr</text><text font-family="DengXian,DengXian_MSFontService,sans-serif" font-weight="700" font-size="19" transform="matrix(1 0 0 1.00011 176.579 753)">addi</text><text font-family="DengXian,DengXian_MSFontService,sans-serif" font-weight="700" font-size="19" transform="matrix(1 0 0 1.00011 177.579 785)">subi</text><text font-family="DengXian,DengXian_MSFontService,sans-serif" font-weight="700" font-size="19" transform="matrix(1 0 0 1.00011 176.746 817)">andi</text><text font-family="DengXian,DengXian_MSFontService,sans-serif" font-weight="700" font-size="19" transform="matrix(1 0 0 1.00011 183.579 849)">ori</text><text font-family="DengXian,DengXian_MSFontService,sans-serif" font-weight="700" font-size="19" transform="matrix(1 0 0 1.00011 178.912 881)">xori</text><text font-family="DengXian,DengXian_MSFontService,sans-serif" font-weight="700" font-size="19" transform="matrix(1 0 0 1.00011 182.829 913)">slti</text><text font-family="DengXian,DengXian_MSFontService,sans-serif" font-weight="700" font-size="19" transform="matrix(1 0 0 1.00011 177.996 945)">seqi</text><text font-family="DengXian,DengXian_MSFontService,sans-serif" font-weight="700" font-size="19" transform="matrix(1 0 0 1.00011 179.662 977)">sgti</text><text font-family="DengXian,DengXian_MSFontService,sans-serif" font-weight="700" font-size="19" transform="matrix(1 0 0 1.00011 183.746 1009)">slli</text><text font-family="DengXian,DengXian_MSFontService,sans-serif" font-weight="700" font-size="19" transform="matrix(1 0 0 1.00011 182.746 1041)">srli</text><text font-family="DengXian,DengXian_MSFontService,sans-serif" font-weight="700" font-size="19" transform="matrix(1 0 0 1.00011 180.329 1073)">srai</text><text font-family="DengXian,DengXian_MSFontService,sans-serif" font-weight="700" font-size="19" transform="matrix(1 0 0 1.00011 185.496 1105)">lw</text><text font-family="DengXian,DengXian_MSFontService,sans-serif" font-weight="700" font-size="19" transform="matrix(1 0 0 1.00011 183.912 1137)">sw</text><text font-family="DengXian,DengXian_MSFontService,sans-serif" font-weight="700" font-size="19" transform="matrix(1 0 0 1.00011 178.829 1169)">beq</text><text font-family="DengXian,DengXian_MSFontService,sans-serif" font-weight="700" font-size="19" transform="matrix(1 0 0 1.00011 192.579 1201)">j</text><path d="M219.389 395.641 270.987 395.641" stroke="#000000" stroke-width="1.33333" stroke-linejoin="round" stroke-miterlimit="10" fill="none" fill-rule="evenodd"/><path d="M219.389 427.645 270.987 427.645" stroke="#000000" stroke-width="1.33333" stroke-linejoin="round" stroke-miterlimit="10" fill="none" fill-rule="evenodd"/><path d="M219.389 459.648 270.987 459.648" stroke="#000000" stroke-width="1.33333" stroke-linejoin="round" stroke-miterlimit="10" fill="none" fill-rule="evenodd"/><path d="M219.389 491.652 270.987 491.652" stroke="#000000" stroke-width="1.33333" stroke-linejoin="round" stroke-miterlimit="10" fill="none" fill-rule="evenodd"/><path d="M219.389 523.655 270.987 523.655" stroke="#000000" stroke-width="1.33333" stroke-linejoin="round" stroke-miterlimit="10" fill="none" fill-rule="evenodd"/><path d="M219.389 555.659 270.987 555.659" stroke="#000000" stroke-width="1.33333" stroke-linejoin="round" stroke-miterlimit="10" fill="none" fill-rule="evenodd"/><path d="M219.389 587.662 270.987 587.662" stroke="#000000" stroke-width="1.33333" stroke-linejoin="round" stroke-miterlimit="10" fill="none" fill-rule="evenodd"/><path d="M219.389 619.666 270.987 619.666" stroke="#000000" stroke-width="1.33333" stroke-linejoin="round" stroke-miterlimit="10" fill="none" fill-rule="evenodd"/><path d="M219.389 651.669 270.987 651.669" stroke="#000000" stroke-width="1.33333" stroke-linejoin="round" stroke-miterlimit="10" fill="none" fill-rule="evenodd"/><path d="M219.389 363.638 270.987 363.638" stroke="#000000" stroke-width="1.33333" stroke-linejoin="round" stroke-miterlimit="10" fill="none" fill-rule="evenodd"/><path d="M219.389 683.673 270.987 683.673" stroke="#000000" stroke-width="1.33333" stroke-linejoin="round" stroke-miterlimit="10" fill="none" fill-rule="evenodd"/><path d="M219.389 777.283 241.256 777.283" stroke="#000000" stroke-width="1.33333" stroke-linejoin="round" stroke-miterlimit="10" fill="none" fill-rule="evenodd"/><path d="M219.389 809.287 241.256 809.287" stroke="#000000" stroke-width="1.33333" stroke-linejoin="round" stroke-miterlimit="10" fill="none" fill-rule="evenodd"/><path d="M219.389 841.29 241.256 841.29" stroke="#000000" stroke-width="1.33333" stroke-linejoin="round" stroke-miterlimit="10" fill="none" fill-rule="evenodd"/><path d="M219.389 873.294 241.256 873.294" stroke="#000000" stroke-width="1.33333" stroke-linejoin="round" stroke-miterlimit="10" fill="none" fill-rule="evenodd"/><path d="M219.389 905.297 241.256 905.297" stroke="#000000" stroke-width="1.33333" stroke-linejoin="round" stroke-miterlimit="10" fill="none" fill-rule="evenodd"/><path d="M219.389 937.301 241.256 937.301" stroke="#000000" stroke-width="1.33333" stroke-linejoin="round" stroke-miterlimit="10" fill="none" fill-rule="evenodd"/><path d="M219.389 969.304 241.256 969.304" stroke="#000000" stroke-width="1.33333" stroke-linejoin="round" stroke-miterlimit="10" fill="none" fill-rule="evenodd"/><path d="M219.389 1001.31 241.256 1001.31" stroke="#000000" stroke-width="1.33333" stroke-linejoin="round" stroke-miterlimit="10" fill="none" fill-rule="evenodd"/><path d="M219.389 1033.31 241.256 1033.31" stroke="#000000" stroke-width="1.33333" stroke-linejoin="round" stroke-miterlimit="10" fill="none" fill-rule="evenodd"/><path d="M219.389 745.28 241.256 745.28" stroke="#000000" stroke-width="1.33333" stroke-linejoin="round" stroke-miterlimit="10" fill="none" fill-rule="evenodd"/><path d="M219.389 1065.31 241.256 1065.31" stroke="#000000" stroke-width="1.33333" stroke-linejoin="round" stroke-miterlimit="10" fill="none" fill-rule="evenodd"/><path d="M494.247 362.318C505.676 373.714 505.03 392.894 492.805 405.158" stroke="#000000" stroke-width="2.00011" stroke-miterlimit="8" fill="none" fill-rule="evenodd"/><path d="M493.5 362.04C509.844 362.04 525.325 369.914 535.676 383.492" stroke="#000000" stroke-width="2" stroke-miterlimit="8" fill="none" fill-rule="evenodd"/><path d="M535.825 383.397C525.31 397.312 509.435 405.287 492.746 405.039" stroke="#000000" stroke-width="2" stroke-miterlimit="8" fill="none" fill-rule="evenodd"/><rect x="271" y="354.039" width="69" height="339.037" stroke="#000000" stroke-width="2" stroke-miterlimit="8" fill="none"/><text font-family="DengXian,DengXian_MSFontService,sans-serif" font-weight="400" font-size="24" transform="matrix(1 0 0 1.00011 287.109 531)">≥</text><text font-family="DengXian,DengXian_MSFontService,sans-serif" font-weight="400" font-size="24" transform="matrix(1 0 0 1.00011 311.109 531)">1</text><rect x="241" y="735.081" width="68" height="340.037" stroke="#000000" stroke-width="2" stroke-miterlimit="8" fill="none"/><text font-family="DengXian,DengXian_MSFontService,sans-serif" font-weight="400" font-size="24" transform="matrix(1 0 0 1.00011 256.701 913)">≥</text><text font-family="DengXian,DengXian_MSFontService,sans-serif" font-weight="400" font-size="24" transform="matrix(1 0 0 1.00011 280.701 913)">1</text><path d="M0 0 80.1845 0 80.1845 150.4 160.369 150.4" stroke="#000000" stroke-width="2" stroke-miterlimit="8" fill="none" fill-rule="evenodd" transform="matrix(1 0 0 -1.00011 340 523.458)"/><path d="M0 0 121.444 0 121.444 522.133" stroke="#000000" stroke-width="2" stroke-miterlimit="8" fill="none" fill-rule="evenodd" transform="matrix(1 0 0 -1.00011 309 905.233)"/><path d="M219 1100.12 639.611 1100.12" stroke="#000000" stroke-width="2" stroke-miterlimit="8" fill="none" fill-rule="evenodd"/><path d="M431 383.042 501.844 383.042" stroke="#000000" stroke-width="2" stroke-miterlimit="8" fill="none" fill-rule="evenodd"/><path d="M498.801 394.043 498.801 394.05 442 394.05 442 1094.93" stroke="#000000" stroke-width="2.00022" stroke-miterlimit="8" fill="none" fill-rule="evenodd"/><path d="M536 383.042 568.444 383.042" stroke="#000000" stroke-width="2" stroke-miterlimit="8" fill="none" fill-rule="evenodd"/><text font-family="DengXian,DengXian_MSFontService,sans-serif" font-weight="700" font-size="24" transform="matrix(1 0 0 1.00011 582.301 389)">RegWrite</text><path d="M621 438.048 659 458.551 621 479.053Z" stroke="#000000" stroke-width="2.00022" stroke-miterlimit="8" fill="none" fill-rule="evenodd"/><path d="M621 504.056 659 525.058 621 546.06Z" stroke="#000000" stroke-width="2.00022" stroke-miterlimit="8" fill="none" fill-rule="evenodd"/><path d="M621 571.063 659 591.565 621 612.067Z" stroke="#000000" stroke-width="2.00022" stroke-miterlimit="8" fill="none" fill-rule="evenodd"/><path d="M621 635.07 659 655.572 621 676.074Z" stroke="#000000" stroke-width="2.00022" stroke-miterlimit="8" fill="none" fill-rule="evenodd"/><path d="M585.5 458.551 621.279 458.551" stroke="#000000" stroke-width="5.33333" stroke-miterlimit="8" fill="none" fill-rule="evenodd"/><path d="M585.5 524.558 621.279 524.558" stroke="#000000" stroke-width="5.33333" stroke-miterlimit="8" fill="none" fill-rule="evenodd"/><path d="M585.5 591.565 621.279 591.565" stroke="#000000" stroke-width="5.33333" stroke-miterlimit="8" fill="none" fill-rule="evenodd"/><path d="M585.5 655.572 621.279 655.572" stroke="#000000" stroke-width="5.33333" stroke-miterlimit="8" fill="none" fill-rule="evenodd"/><text font-family="DengXian,DengXian_MSFontService,sans-serif" font-weight="400" font-size="24" transform="matrix(1 0 0 1.00011 489.235 463)">func[3:0]</text><text font-family="DengXian,DengXian_MSFontService,sans-serif" font-weight="400" font-size="24" transform="matrix(1 0 0 1.00011 505.896 528)">op[3:0]</text><text font-family="DengXian,DengXian_MSFontService,sans-serif" font-weight="400" font-size="24" transform="matrix(1 0 0 1.00011 527.935 662)">101</text><text font-family="DengXian,DengXian_MSFontService,sans-serif" font-weight="400" font-size="24" transform="matrix(1 0 0 1.00011 565.935 662)">0</text><text font-family="DengXian,DengXian_MSFontService,sans-serif" font-weight="400" font-size="24" transform="matrix(1 0 0 1.00011 527.935 599)">0001</text><path d="M0 0 20.6796 0 20.6796 219.918" stroke="#000000" stroke-width="2" stroke-miterlimit="8" fill="none" fill-rule="evenodd" transform="matrix(-1.83697e-16 -1.00011 -1 1.83717e-16 639.918 447.729)"/><path d="M416 427.547C416 425.614 417.567 424.047 419.5 424.047 421.433 424.047 423 425.614 423 427.547 423 429.48 421.433 431.048 419.5 431.048 417.567 431.048 416 429.48 416 427.547Z" stroke="#000000" stroke-width="2" stroke-miterlimit="8" fill-rule="evenodd"/><path d="M0 0 21.6995 0 21.6995 209.067" stroke="#000000" stroke-width="2" stroke-miterlimit="8" fill="none" fill-rule="evenodd" transform="matrix(-1.83697e-16 -1.00011 -1 1.83717e-16 640.067 514.756)"/><path d="M427 492.554C427 490.621 428.567 489.054 430.5 489.054 432.433 489.054 434 490.621 434 492.554 434 494.487 432.433 496.055 430.5 496.055 428.567 496.055 427 494.487 427 492.554Z" stroke="#000000" stroke-width="2" stroke-miterlimit="8" fill-rule="evenodd"/><path d="M219 1132.12 639.611 1132.12" stroke="#000000" stroke-width="2" stroke-miterlimit="8" fill="none" fill-rule="evenodd"/><path d="M438 1098.62C438 1096.69 439.567 1095.12 441.5 1095.12 443.433 1095.12 445 1096.69 445 1098.62 445 1100.55 443.433 1102.12 441.5 1102.12 439.567 1102.12 438 1100.55 438 1098.62Z" stroke="#000000" stroke-width="2" stroke-miterlimit="8" fill-rule="evenodd"/><path d="M458.549 1014.69C469.945 1003.26 489.123 1003.91 501.385 1016.13" stroke="#000000" stroke-width="2.00011" stroke-miterlimit="8" fill="none" fill-rule="evenodd"/><path d="M458 1015.61C458 999.266 465.873 983.784 479.449 973.431" stroke="#000000" stroke-width="2.00022" stroke-miterlimit="8" fill="none" fill-rule="evenodd"/><path d="M479.355 973.283C493.268 983.799 501.242 999.675 500.994 1016.37" stroke="#000000" stroke-width="2.00022" stroke-miterlimit="8" fill="none" fill-rule="evenodd"/><path d="M469.053 1095.33 469 1008.11" stroke="#000000" stroke-width="2" stroke-miterlimit="8" fill="none" fill-rule="evenodd"/><path d="M0 0 0.000104987 121.024" stroke="#000000" stroke-width="2" stroke-miterlimit="8" fill="none" fill-rule="evenodd" transform="matrix(1 0 0 -1.00011 489 1129.15)"/><path d="M466 1098.62C466 1096.69 467.343 1095.12 469 1095.12 470.657 1095.12 472 1096.69 472 1098.62 472 1100.55 470.657 1102.12 469 1102.12 467.343 1102.12 466 1100.55 466 1098.62Z" stroke="#000000" stroke-width="2" stroke-miterlimit="8" fill-rule="evenodd"/><path d="M485 1132.62C485 1130.69 486.567 1129.12 488.5 1129.12 490.433 1129.12 492 1130.69 492 1132.62 492 1134.56 490.433 1136.13 488.5 1136.13 486.567 1136.13 485 1134.56 485 1132.62Z" stroke="#000000" stroke-width="2" stroke-miterlimit="8" fill-rule="evenodd"/><path d="M640.21 581.064 640.21 557.062 479.263 557.062 479.263 973.054 480 973.054" stroke="#000000" stroke-width="2.00022" stroke-miterlimit="8" fill="none" fill-rule="evenodd"/><path d="M219 1165.13 639.611 1165.13" stroke="#000000" stroke-width="2" stroke-miterlimit="8" fill="none" fill-rule="evenodd"/><path d="M508 1165.63C508 1163.7 509.567 1162.13 511.5 1162.13 513.433 1162.13 515 1163.7 515 1165.63 515 1167.56 513.433 1169.13 511.5 1169.13 509.567 1169.13 508 1167.56 508 1165.63Z" stroke="#000000" stroke-width="2" stroke-miterlimit="8" fill-rule="evenodd"/><path d="M640.422 644.071 640.422 626.573 512 626.573 512 1162.53" stroke="#000000" stroke-width="2.00022" stroke-miterlimit="8" fill="none" fill-rule="evenodd"/><path d="M659.5 458.551 697.664 458.551" stroke="#000000" stroke-width="5.33333" stroke-miterlimit="8" fill="none" fill-rule="evenodd"/><path d="M659.5 525.558 688.855 525.649" stroke="#000000" stroke-width="5.33333" stroke-miterlimit="8" fill="none" fill-rule="evenodd"/><path d="M659.5 591.565 688.855 591.598" stroke="#000000" stroke-width="5.33333" stroke-miterlimit="8" fill="none" fill-rule="evenodd"/><path d="M659.5 655.572 693.932 655.572" stroke="#000000" stroke-width="5.33333" stroke-miterlimit="8" fill="none" fill-rule="evenodd"/><path d="M696 456.05 696 658.073" stroke="#000000" stroke-width="6" stroke-miterlimit="8" fill="none" fill-rule="evenodd"/><path d="M701.5 555.561 776.546 555.561" stroke="#000000" stroke-width="5.33333" stroke-miterlimit="8" fill="none" fill-rule="evenodd"/><text font-family="DengXian,DengXian_MSFontService,sans-serif" font-weight="700" font-size="24" transform="matrix(1 0 0 1.00011 786 562)">AluOp</text><path d="M689 525.058C689 521.744 691.686 519.057 695 519.057 698.314 519.057 701 521.744 701 525.058 701 528.372 698.314 531.059 695 531.059 691.686 531.059 689 528.372 689 525.058Z" stroke="#000000" stroke-width="2" stroke-miterlimit="8" fill-rule="evenodd"/><path d="M689 591.565C689 587.975 691.686 585.065 695 585.065 698.314 585.065 701 587.975 701 591.565 701 595.155 698.314 598.066 695 598.066 691.686 598.066 689 595.155 689 591.565Z" stroke="#000000" stroke-width="2" stroke-miterlimit="8" fill-rule="evenodd"/><path d="M689 555.061C689 551.747 691.686 549.061 695 549.061 698.314 549.061 701 551.747 701 555.061 701 558.375 698.314 561.062 695 561.062 691.686 561.062 689 558.375 689 555.061Z" stroke="#000000" stroke-width="2" stroke-miterlimit="8" fill-rule="evenodd"/><path d="M629.012 763.014C640.441 774.411 639.795 793.591 627.569 805.855" stroke="#000000" stroke-width="2.00011" stroke-miterlimit="8" fill="none" fill-rule="evenodd"/><path d="M628.5 763.084C644.844 763.084 660.325 770.958 670.676 784.536" stroke="#000000" stroke-width="2" stroke-miterlimit="8" fill="none" fill-rule="evenodd"/><path d="M670.825 783.441C660.31 797.356 644.435 805.331 627.746 805.083" stroke="#000000" stroke-width="2" stroke-miterlimit="8" fill="none" fill-rule="evenodd"/><path d="M427 778.586C427 776.653 428.567 775.085 430.5 775.085 432.433 775.085 434 776.653 434 778.586 434 780.519 432.433 782.086 430.5 782.086 428.567 782.086 427 780.519 427 778.586Z" stroke="#000000" stroke-width="2" stroke-miterlimit="8" fill-rule="evenodd"/><path d="M476 790.587C476 788.654 477.343 787.087 479 787.087 480.657 787.087 482 788.654 482 790.587 482 792.52 480.657 794.088 479 794.088 477.343 794.088 476 792.52 476 790.587Z" stroke="#000000" stroke-width="2" stroke-miterlimit="8" fill-rule="evenodd"/><path d="M434 779.086 636.19 779.086" stroke="#000000" stroke-width="2" stroke-miterlimit="8" fill="none" fill-rule="evenodd"/><path d="M482 790.087 635.984 790.087" stroke="#000000" stroke-width="2" stroke-miterlimit="8" fill="none" fill-rule="evenodd"/><path d="M671 784.086 712.305 784.087" stroke="#000000" stroke-width="2" stroke-miterlimit="8" fill="none" fill-rule="evenodd"/><text font-family="DengXian,DengXian_MSFontService,sans-serif" font-weight="700" font-size="24" transform="matrix(1 0 0 1.00011 718.389 791)">Imm</text><path d="M219 715.079 708.4 715.079" stroke="#000000" stroke-width="2" stroke-miterlimit="8" fill="none" fill-rule="evenodd"/><text font-family="DengXian,DengXian_MSFontService,sans-serif" font-weight="700" font-size="24" transform="matrix(1 0 0 1.00011 718.389 722)">RegBranch</text><text font-family="DengXian,DengXian_MSFontService,sans-serif" font-weight="700" font-size="24" transform="matrix(1 0 0 1.00011 646 1173)">NearBranch</text><path d="M219 1199.13 639.611 1199.13" stroke="#000000" stroke-width="2" stroke-miterlimit="8" fill="none" fill-rule="evenodd"/><text font-family="DengXian,DengXian_MSFontService,sans-serif" font-weight="700" font-size="24" transform="matrix(1 0 0 1.00011 646 1208)">AbsBranch</text><text font-family="DengXian,DengXian_MSFontService,sans-serif" font-weight="700" font-size="24" transform="matrix(1 0 0 1.00011 646 1105)">MemRead</text><text font-family="DengXian,DengXian_MSFontService,sans-serif" font-weight="700" font-size="24" transform="matrix(1 0 0 1.00011 646 1141)">MemWrite</text><path d="M629.012 907.177C640.441 918.574 639.795 937.754 627.569 950.018" stroke="#000000" stroke-width="2.00011" stroke-miterlimit="8" fill="none" fill-rule="evenodd"/><path d="M628.5 907.1C644.844 907.1 660.325 914.974 670.676 928.552" stroke="#000000" stroke-width="2" stroke-miterlimit="8" fill="none" fill-rule="evenodd"/><path d="M670.825 927.457C660.31 941.372 644.435 949.347 627.746 949.099" stroke="#000000" stroke-width="2" stroke-miterlimit="8" fill="none" fill-rule="evenodd"/><text font-family="DengXian,DengXian_MSFontService,sans-serif" font-weight="700" font-size="19" transform="matrix(1 0 0 1.00011 561.918 901)">sll</text><text font-family="DengXian,DengXian_MSFontService,sans-serif" font-weight="700" font-size="19" transform="matrix(1 0 0 1.00011 560.918 933)">srl</text><text font-family="DengXian,DengXian_MSFontService,sans-serif" font-weight="700" font-size="19" transform="matrix(1 0 0 1.00011 558.501 965)">sra</text><path d="M671 927.102 712.305 927.102" stroke="#000000" stroke-width="2" stroke-miterlimit="8" fill="none" fill-rule="evenodd"/><text font-family="DengXian,DengXian_MSFontService,sans-serif" font-weight="700" font-size="24" transform="matrix(1 0 0 1.00011 718.389 935)">Shift</text><path d="M589 927.102 637.077 927.102" stroke="#000000" stroke-width="2" stroke-miterlimit="8" fill="none" fill-rule="evenodd"/><path d="M589 896.099 604.739 896.099 604.739 916.301 634.877 916.301" stroke="#000000" stroke-width="2" stroke-miterlimit="8" fill="none" fill-rule="evenodd"/><path d="M0 0 14.8386 0 14.8386 22.5591 46.077 22.5591" stroke="#000000" stroke-width="2" stroke-miterlimit="8" fill="none" fill-rule="evenodd" transform="matrix(1 0 0 -1.00011 589 960.665)"/></g></svg>